<?xml version="1.0" encoding="UTF-8" standalone="no"?>
<svg
   xmlns:dc="http://purl.org/dc/elements/1.1/"
   xmlns:cc="http://creativecommons.org/ns#"
   xmlns:rdf="http://www.w3.org/1999/02/22-rdf-syntax-ns#"
   xmlns:svg="http://www.w3.org/2000/svg"
   xmlns="http://www.w3.org/2000/svg"
   xmlns:sodipodi="http://sodipodi.sourceforge.net/DTD/sodipodi-0.dtd"
   xmlns:inkscape="http://www.inkscape.org/namespaces/inkscape"
   width="277.62668mm"
   height="54.455528mm"
   viewBox="0 0 277.62667 54.455527"
   version="1.1"
   id="svg878"
   inkscape:version="1.0.1 (3bc2e813f5, 2020-09-07)"
   sodipodi:docname="j.svg">
  <defs
     id="defs872" />
  <sodipodi:namedview
     id="base"
     pagecolor="#ffffff"
     bordercolor="#666666"
     borderopacity="1.0"
     inkscape:pageopacity="0.0"
     inkscape:pageshadow="2"
     inkscape:zoom="0.7"
     inkscape:cx="508.13797"
     inkscape:cy="-61.912084"
     inkscape:document-units="mm"
     inkscape:current-layer="layer1"
     inkscape:document-rotation="0"
     showgrid="false"
     fit-margin-top="0"
     fit-margin-left="0"
     fit-margin-right="0"
     fit-margin-bottom="0"
     inkscape:snap-intersection-paths="true"
     inkscape:snap-center="true"
     inkscape:snap-object-midpoints="true"
     inkscape:window-width="2560"
     inkscape:window-height="1017"
     inkscape:window-x="-8"
     inkscape:window-y="-8"
     inkscape:window-maximized="1" />
  <metadata
     id="metadata875">
    <rdf:RDF>
      <cc:Work
         rdf:about="">
        <dc:format>image/svg+xml</dc:format>
        <dc:type
           rdf:resource="http://purl.org/dc/dcmitype/StillImage" />
        <dc:title></dc:title>
      </cc:Work>
    </rdf:RDF>
  </metadata>
  <g
     inkscape:label="Layer 1"
     inkscape:groupmode="layer"
     id="layer1"
     transform="translate(62.540656,-118.63366)">
    <g
       id="g1501"
       transform="matrix(2.0863084,0,0,2.0863084,14.495474,119.4043)">
      <g
         id="g1445">
        <path
           style="fill:#030104"
           d="M 5.733,2.183 C 5.72,2.193 5.71,2.204 5.698,2.214 5.771,2.137 5.876,2.054 5.945,2.009 7.959,0.7 10.286,0 12.868,0 c 2.415,0 4.677,0.667 6.608,1.827 0.14,0.083 0.522,0.345 0.719,0.583 V 2.411 C 18.332,0.357 12.856,4.764 12.856,4.764 10.962,3.304 9.22,2.309 7.923,1.955 6.839,1.658 6.089,1.906 5.733,2.183 Z M 22.305,4.125 C 22.248,4.062 22.186,4.003 22.129,3.938 21.658,3.421 21.079,3.296 20.557,3.33 c -0.475,0.149 -2.67,0.94 -5.375,3.494 0,0 3.045,2.961 4.91,5.988 1.863,3.027 2.977,5.406 2.292,8.708 2.079,-2.285 3.347,-5.321 3.347,-8.655 0,-3.374 -1.299,-6.445 -3.426,-8.74 z m -4.648,9.98 C 16.831,13.178 15.602,11.85 13.979,10.236 13.624,9.883 13.249,9.515 12.855,9.134 c 0,0 -0.593,0.593 -1.365,1.373 v -10e-4 c -0.988,0.998 -2.269,2.3 -2.98,3.06 -1.266,1.351 -4.893,5.594 -5.097,7.973 0,0 -0.807,-1.887 0.964,-6.239 1.157,-2.845 4.653,-7.117 6.113,-8.509 0,0 -1.334,-1.468 -3.008,-2.482 L 7.472,4.306 c 0,0 -0.019,-0.015 -0.049,-0.034 C 6.618,3.792 5.739,3.422 4.893,3.373 4.029,3.434 3.482,4.066 3.482,4.066 c -2.159,2.302 -3.48,5.396 -3.48,8.8 0,7.105 5.76,12.866 12.866,12.866 3.771,0 7.164,-1.626 9.518,-4.211 -10e-4,-0.004 -0.271,-1.7 -2.002,-4.133 -0.407,-0.57 -1.894,-2.349 -2.727,-3.283 z"
           id="path1443" />
      </g>
      <g
         id="g1447" />
      <g
         id="g1449" />
      <g
         id="g1451" />
      <g
         id="g1453" />
      <g
         id="g1455" />
      <g
         id="g1457" />
      <g
         id="g1459" />
      <g
         id="g1461" />
      <g
         id="g1463" />
      <g
         id="g1465" />
      <g
         id="g1467" />
      <g
         id="g1469" />
      <g
         id="g1471" />
      <g
         id="g1473" />
      <g
         id="g1475" />
    </g>
    <g
       id="g1570"
       transform="matrix(0.65609224,0,0,0.65609224,76.822795,110.71922)">
      <g
         id="g1511">
        <g
           id="g1509">
          <path
             style="fill:#030104"
             d="m 15.159613,67.563 -3.6,1.4 c -5.3999997,2.3 -8.1999997,4.7 -8.0999997,6.8 0.3,3.1 3.8,5.4 10.1999997,7.1 8.3,2.2 16.7,2.7 25.4,1.4 v -8.7 0 l -6.9,2.6 c -7.2,2.5 -10.9,0.4 -10.9,0.4 -1.1,-0.7 -1.6,-2.4 1.4,-3.5 l 3.8,-1.4 12.6,-4.5 v -10.1 l -3.2,1.1 z"
             id="path1503" />
          <path
             style="fill:#030104"
             d="m 67.759613,32.463 v 25.9 c 5.4,2.6 10.2,2.8 13.8,0.1 3.7,-2.6 5.7,-7.1 5.7,-13.9 0,-7.1 -1.4,-12.5 -4.5,-16.1 -2.8,-3.8 -7.8,-7 -15.2,-9.5 -9.2,-3 -17,-5.6 -23.2,-6.9 v 77.5 l 16.7,5.1 v -64.4 c -0.1,-3.9 6.7,-3.6 6.7,2.2 z"
             id="path1505" />
          <path
             style="fill:#030104"
             d="m 110.15961,72.463 c -0.1,-2.7 -3.3,-4.8 -9,-6.7 -6.399997,-2.1 -11.899997,-3.1 -17.899997,-2.9 -5.5,0.1 -12.1,1.9 -18,3.8 v 9.9 l 16.2,-5.7 c 0,0 4.9,-1.8 9.1,-0.7 3.2,0.8 3,2.6 -0.2,3.7 l -3.7,1.5 -21.4,7.7 v 10.1 l 10,-3.6 24,-8.5 2.799997,-1.3 c 5.8,-2.1 8.4,-4.4 8.1,-7.3 z"
             id="path1507" />
        </g>
      </g>
      <g
         id="g1513" />
      <g
         id="g1515" />
      <g
         id="g1517" />
      <g
         id="g1519" />
      <g
         id="g1521" />
      <g
         id="g1523" />
      <g
         id="g1525" />
      <g
         id="g1527" />
      <g
         id="g1529" />
      <g
         id="g1531" />
      <g
         id="g1533" />
      <g
         id="g1535" />
      <g
         id="g1537" />
      <g
         id="g1539" />
      <g
         id="g1541" />
    </g>
    <g
       id="g1618"
       transform="matrix(0.10237999,0,0,0.10237999,160.39962,119.79365)">
      <g
         id="g12">
        <g
           id="g10">
          <path
             d="M 137.15137,0 C 73.740371,0 22.151371,51.589 22.151371,115 v 282 c 0,63.411 51.589,115 114.999999,115 h 126 V 0 Z m 5.5,211 c -33.359,0 -60.499999,-27.141 -60.499999,-60.5 0,-33.359 27.140999,-60.5 60.499999,-60.5 33.359,0 60.5,27.141 60.5,60.5 0,33.359 -27.141,60.5 -60.5,60.5 z"
             id="path8" />
        </g>
      </g>
      <g
         id="g24">
        <g
           id="g22">
          <path
             d="m 419.15137,0 h -126 v 512 h 126 c 63.411,0 115,-51.589 115,-115 V 115 c 0,-63.411 -51.589,-115 -115,-115 z m -5.5,348 c -33.359,0 -60.5,-27.141 -60.5,-60.5 0,-33.359 27.141,-60.5 60.5,-60.5 33.359,0 60.5,27.141 60.5,60.5 0,33.359 -27.141,60.5 -60.5,60.5 z"
             id="path20" />
        </g>
      </g>
      <g
         id="g26" />
      <g
         id="g28" />
      <g
         id="g30" />
      <g
         id="g32" />
      <g
         id="g34" />
      <g
         id="g36" />
      <g
         id="g38" />
      <g
         id="g40" />
      <g
         id="g42" />
      <g
         id="g44" />
      <g
         id="g46" />
      <g
         id="g48" />
      <g
         id="g50" />
      <g
         id="g52" />
      <g
         id="g54" />
    </g>
    <text
       xml:space="preserve"
       style="font-style:normal;font-variant:normal;font-weight:bold;font-stretch:normal;font-size:58.8106px;line-height:1.25;font-family:sans-serif;-inkscape-font-specification:'sans-serif Bold';fill:#000000;fill-opacity:1;stroke:none;stroke-width:0.306304"
       x="-73.138771"
       y="153.46976"
       id="text1622"
       transform="scale(0.90822817,1.1010449)"><tspan
         sodipodi:role="line"
         id="tspan1620"
         x="-73.138771"
         y="153.46976"
         style="font-style:normal;font-variant:normal;font-weight:bold;font-stretch:normal;font-size:58.8106px;font-family:Arial;-inkscape-font-specification:'Arial Bold';letter-spacing:-4.20559px;stroke-width:0.306304">PC</tspan></text>
  </g>
</svg>
