<?xml version="1.0" encoding="UTF-8" standalone="no"?>
<svg
   xmlns:dc="http://purl.org/dc/elements/1.1/"
   xmlns:cc="http://creativecommons.org/ns#"
   xmlns:rdf="http://www.w3.org/1999/02/22-rdf-syntax-ns#"
   xmlns:svg="http://www.w3.org/2000/svg"
   xmlns="http://www.w3.org/2000/svg"
   xmlns:sodipodi="http://sodipodi.sourceforge.net/DTD/sodipodi-0.dtd"
   xmlns:inkscape="http://www.inkscape.org/namespaces/inkscape"
   version="1.1"
   id="Capa_1"
   x="0px"
   y="0px"
   viewBox="0 0 512 390"
   xml:space="preserve"
   sodipodi:docname="menu.svg"
   width="512"
   height="390"
   inkscape:version="1.0.1 (3bc2e813f5, 2020-09-07)"><metadata
   id="metadata73"><rdf:RDF><cc:Work
       rdf:about=""><dc:format>image/svg+xml</dc:format><dc:type
         rdf:resource="http://purl.org/dc/dcmitype/StillImage" /><dc:title></dc:title></cc:Work></rdf:RDF></metadata><defs
   id="defs71" /><sodipodi:namedview
   pagecolor="#ffffff"
   bordercolor="#666666"
   borderopacity="1"
   objecttolerance="10"
   gridtolerance="10"
   guidetolerance="10"
   inkscape:pageopacity="0"
   inkscape:pageshadow="2"
   inkscape:window-width="2560"
   inkscape:window-height="1017"
   id="namedview69"
   showgrid="false"
   fit-margin-top="0"
   fit-margin-left="0"
   fit-margin-right="0"
   fit-margin-bottom="0"
   inkscape:zoom="0.58695387"
   inkscape:cx="285.4515"
   inkscape:cy="425.11004"
   inkscape:window-x="-8"
   inkscape:window-y="-8"
   inkscape:window-maximized="1"
   inkscape:current-layer="Capa_1" />
<g
   id="g6"
   transform="translate(0,-61)">
	<g
   id="g4">
		<path
   d="M 467,61 H 165 c -24.82,0 -45,20.19 -45,45 0,24.82 20.18,45 45,45 h 302 c 24.81,0 45,-20.18 45,-45 0,-24.81 -20.19,-45 -45,-45 z"
   id="path2" />
	</g>
</g>
<g
   id="g12"
   transform="translate(0,-61)">
	<g
   id="g10">
		<path
   d="M 467,211 H 165 c -24.82,0 -45,20.19 -45,45 0,24.82 20.18,45 45,45 h 302 c 24.81,0 45,-20.18 45,-45 0,-24.81 -20.19,-45 -45,-45 z"
   id="path8" />
	</g>
</g>
<g
   id="g18"
   transform="translate(0,-61)">
	<g
   id="g16">
		<path
   d="M 467,361 H 165 c -24.82,0 -45,20.19 -45,45 0,24.82 20.18,45 45,45 h 302 c 24.81,0 45,-20.18 45,-45 0,-24.81 -20.19,-45 -45,-45 z"
   id="path14" />
	</g>
</g>
<g
   id="g24"
   transform="translate(0,-61)">
	<g
   id="g22">
		<path
   d="M 45,61 C 20.18,61 0,81.19 0,106 c 0,24.82 20.18,45 45,45 24.81,0 45,-20.18 45,-45 C 90,81.19 69.81,61 45,61 Z"
   id="path20" />
	</g>
</g>
<g
   id="g30"
   transform="translate(0,-61)">
	<g
   id="g28">
		<path
   d="m 45,211 c -24.82,0 -45,20.19 -45,45 0,24.82 20.18,45 45,45 24.81,0 45,-20.18 45,-45 0,-24.81 -20.19,-45 -45,-45 z"
   id="path26" />
	</g>
</g>
<g
   id="g36"
   transform="translate(0,-61)">
	<g
   id="g34">
		<path
   d="m 45,361 c -24.82,0 -45,20.19 -45,45 0,24.82 20.18,45 45,45 24.81,0 45,-20.18 45,-45 0,-24.81 -20.19,-45 -45,-45 z"
   id="path32" />
	</g>
</g>
<g
   id="g38"
   transform="translate(0,-61)">
</g>
<g
   id="g40"
   transform="translate(0,-61)">
</g>
<g
   id="g42"
   transform="translate(0,-61)">
</g>
<g
   id="g44"
   transform="translate(0,-61)">
</g>
<g
   id="g46"
   transform="translate(0,-61)">
</g>
<g
   id="g48"
   transform="translate(0,-61)">
</g>
<g
   id="g50"
   transform="translate(0,-61)">
</g>
<g
   id="g52"
   transform="translate(0,-61)">
</g>
<g
   id="g54"
   transform="translate(0,-61)">
</g>
<g
   id="g56"
   transform="translate(0,-61)">
</g>
<g
   id="g58"
   transform="translate(0,-61)">
</g>
<g
   id="g60"
   transform="translate(0,-61)">
</g>
<g
   id="g62"
   transform="translate(0,-61)">
</g>
<g
   id="g64"
   transform="translate(0,-61)">
</g>
<g
   id="g66"
   transform="translate(0,-61)">
</g>
</svg>
