<?xml version="1.0" encoding="UTF-8" standalone="no"?>
<svg
   xmlns:dc="http://purl.org/dc/elements/1.1/"
   xmlns:cc="http://creativecommons.org/ns#"
   xmlns:rdf="http://www.w3.org/1999/02/22-rdf-syntax-ns#"
   xmlns:svg="http://www.w3.org/2000/svg"
   xmlns="http://www.w3.org/2000/svg"
   xmlns:sodipodi="http://sodipodi.sourceforge.net/DTD/sodipodi-0.dtd"
   xmlns:inkscape="http://www.inkscape.org/namespaces/inkscape"
   version="1.1"
   id="Capa_1"
   x="0px"
   y="0px"
   viewBox="0 0 512 512"
   style="enable-background:new 0 0 512 512;"
   xml:space="preserve"
   sodipodi:docname="chip.svg"
   inkscape:version="1.0.1 (3bc2e813f5, 2020-09-07)"><metadata
   id="metadata49"><rdf:RDF><cc:Work
       rdf:about=""><dc:format>image/svg+xml</dc:format><dc:type
         rdf:resource="http://purl.org/dc/dcmitype/StillImage" /></cc:Work></rdf:RDF></metadata><defs
   id="defs47" /><sodipodi:namedview
   pagecolor="#ffffff"
   bordercolor="#666666"
   borderopacity="1"
   objecttolerance="10"
   gridtolerance="10"
   guidetolerance="10"
   inkscape:pageopacity="0"
   inkscape:pageshadow="2"
   inkscape:window-width="2560"
   inkscape:window-height="1017"
   id="namedview45"
   showgrid="false"
   inkscape:zoom="1.6601562"
   inkscape:cx="466.35908"
   inkscape:cy="77.321401"
   inkscape:window-x="-8"
   inkscape:window-y="-8"
   inkscape:window-maximized="1"
   inkscape:current-layer="Capa_1" />





<path
   style="fill:#4D4D4D;"
   d="M99.496,76.837h311.015c13.765,0,24.925,11.159,24.925,24.925v311.015  c0,13.765-11.159,24.925-24.925,24.925H99.496c-13.765,0-24.925-11.159-24.925-24.925V101.761  C74.571,87.996,85.73,76.837,99.496,76.837z"
   id="path2" /><path
   d="M504.5,206.724c4.142,0,7.5-3.358,7.5-7.5s-3.358-7.5-7.5-7.5h-64.91v-41.777h64.91c4.142,0,7.5-3.358,7.5-7.5  s-3.358-7.5-7.5-7.5h-64.91V79.911c0-4.142-3.358-7.5-7.5-7.5h-55.037V7.5c0-4.142-3.358-7.5-7.5-7.5s-7.5,3.358-7.5,7.5v64.911  h-41.776V7.5c0-4.142-3.358-7.5-7.5-7.5s-7.5,3.358-7.5,7.5v64.911H263.5V7.5c0-4.142-3.358-7.5-7.5-7.5s-7.5,3.358-7.5,7.5v64.911  h-41.776V7.5c0-4.142-3.358-7.5-7.5-7.5s-7.5,3.358-7.5,7.5v64.911h-41.776V7.5c0-4.142-3.358-7.5-7.5-7.5s-7.5,3.358-7.5,7.5  v64.911H79.911c-4.142,0-7.5,3.358-7.5,7.5v55.036H7.5c-4.142,0-7.5,3.358-7.5,7.5s3.358,7.5,7.5,7.5h64.911v41.777H7.5  c-4.142,0-7.5,3.358-7.5,7.5s3.358,7.5,7.5,7.5h64.911V248.5H7.5c-4.142,0-7.5,3.358-7.5,7.5s3.358,7.5,7.5,7.5h64.911v41.777H7.5  c-4.142,0-7.5,3.358-7.5,7.5s3.358,7.5,7.5,7.5h64.911v41.776H7.5c-4.142,0-7.5,3.358-7.5,7.5s3.358,7.5,7.5,7.5h64.911v55.036  c0,4.142,3.358,7.5,7.5,7.5h55.037V504.5c0,4.142,3.358,7.5,7.5,7.5s7.5-3.358,7.5-7.5v-64.911h41.776V504.5  c0,4.142,3.358,7.5,7.5,7.5s7.5-3.358,7.5-7.5v-64.911H248.5V504.5c0,4.142,3.358,7.5,7.5,7.5s7.5-3.358,7.5-7.5v-64.911h41.777  V504.5c0,4.142,3.358,7.5,7.5,7.5s7.5-3.358,7.5-7.5v-64.911h41.776V504.5c0,4.142,3.358,7.5,7.5,7.5s7.5-3.358,7.5-7.5v-64.911  h55.037c4.142,0,7.5-3.358,7.5-7.5v-55.036h64.91c4.142,0,7.5-3.358,7.5-7.5s-3.358-7.5-7.5-7.5h-64.91v-41.776h64.91  c4.142,0,7.5-3.358,7.5-7.5s-3.358-7.5-7.5-7.5h-64.91V263.5h64.91c4.142,0,7.5-3.358,7.5-7.5s-3.358-7.5-7.5-7.5h-64.91v-41.776  H504.5z M424.59,248.5h-15.54c-4.142,0-7.5,3.358-7.5,7.5s3.358,7.5,7.5,7.5h15.54v41.777h-15.54c-4.142,0-7.5,3.358-7.5,7.5  s3.358,7.5,7.5,7.5h15.54v41.776h-15.54c-4.142,0-7.5,3.358-7.5,7.5s3.358,7.5,7.5,7.5h15.54v47.536h-47.537v-15.54  c0-4.142-3.358-7.5-7.5-7.5s-7.5,3.358-7.5,7.5v15.54h-41.776v-15.54c0-4.142-3.358-7.5-7.5-7.5s-7.5,3.358-7.5,7.5v15.54H263.5  v-15.54c0-4.142-3.358-7.5-7.5-7.5s-7.5,3.358-7.5,7.5v15.54h-41.776v-15.54c0-4.142-3.358-7.5-7.5-7.5s-7.5,3.358-7.5,7.5v15.54  h-41.776v-15.54c0-4.142-3.358-7.5-7.5-7.5s-7.5,3.358-7.5,7.5v15.54H87.411v-47.536h15.54c4.142,0,7.5-3.358,7.5-7.5  s-3.358-7.5-7.5-7.5h-15.54v-41.776h15.54c4.142,0,7.5-3.358,7.5-7.5s-3.358-7.5-7.5-7.5h-15.54V263.5h15.54  c4.142,0,7.5-3.358,7.5-7.5s-3.358-7.5-7.5-7.5h-15.54v-41.776h15.54c4.142,0,7.5-3.358,7.5-7.5s-3.358-7.5-7.5-7.5h-15.54v-41.777  h15.54c4.142,0,7.5-3.358,7.5-7.5s-3.358-7.5-7.5-7.5h-15.54V87.411h47.537v15.54c0,4.142,3.358,7.5,7.5,7.5s7.5-3.358,7.5-7.5  v-15.54h41.776v15.54c0,4.142,3.358,7.5,7.5,7.5s7.5-3.358,7.5-7.5v-15.54H248.5v15.54c0,4.142,3.358,7.5,7.5,7.5s7.5-3.358,7.5-7.5  v-15.54h41.777v15.54c0,4.142,3.358,7.5,7.5,7.5s7.5-3.358,7.5-7.5v-15.54h41.776v15.54c0,4.142,3.358,7.5,7.5,7.5  s7.5-3.358,7.5-7.5v-15.54h47.537v47.536h-15.54c-4.142,0-7.5,3.358-7.5,7.5s3.358,7.5,7.5,7.5h15.54v41.777h-15.54  c-4.142,0-7.5,3.358-7.5,7.5s3.358,7.5,7.5,7.5h15.54V248.5z"
   id="path12" />
<g
   id="g14">
</g>
<g
   id="g16">
</g>
<g
   id="g18">
</g>
<g
   id="g20">
</g>
<g
   id="g22">
</g>
<g
   id="g24">
</g>
<g
   id="g26">
</g>
<g
   id="g28">
</g>
<g
   id="g30">
</g>
<g
   id="g32">
</g>
<g
   id="g34">
</g>
<g
   id="g36">
</g>
<g
   id="g38">
</g>
<g
   id="g40">
</g>
<g
   id="g42">
</g>
<rect
   x="187.55"
   y="189.82"
   style="fill:#b3b3b3;stroke:none;stroke-width:5;stroke-miterlimit:4;stroke-dasharray:none"
   width="134.9"
   height="134.9"
   id="rect6" /></svg>
